<?xml version="1.0" encoding="UTF-8" standalone="no"?>
<!DOCTYPE svg PUBLIC "-//W3C//DTD SVG 1.0//EN"
"http://www.w3.org/TR/2001/REC-SVG-20010904/DTD/svg10.dtd">
<!-- Created with Sodipodi ("http://www.sodipodi.com/") -->
<svg
   id="svg762"
   sodipodi:version="0.34"
   xmlns="http://www.w3.org/2000/svg"
   xmlns:sodipodi="http://sodipodi.sourceforge.net/DTD/sodipodi-0.dtd"
   xmlns:xlink="http://www.w3.org/1999/xlink"
   width="800pt"
   height="600pt"
   xml:space="preserve"
   sodipodi:docbase="/home/whitelynx/development/precursors/gamedata_source/graphics"
   sodipodi:docname="/home/whitelynx/development/precursors/gamedata_source/graphics/hud1"><defs
   id="defs764" /><sodipodi:namedview
   id="base"
   showgrid="true"
   snaptogrid="true"
   pagecolor="#000000"
   gridspacingx="5pt"
   gridspacingy="5pt"
   gridtolerance="2.5pt" /><path
   style="font-size:12;fill-opacity:0.75;fill-rule:evenodd;stroke-width:1;fill:#000033;"
   d="M 0 -0 L 187.5 -0 L 187.5 106.25 L 156.25 137.5 L 0 137.5 L 0 -0 z "
   id="path766"
   sodipodi:nodetypes="cccccc" /><path
   style="font-size:12;fill:#0000ff;fill-opacity:0.75;fill-rule:evenodd;stroke-width:1;"
   d="M 187.5 -0 L 200 -0 L 200 112.5 L 162.5 150 L 0 150 L 0 137.5 L 156.25 137.5 L 187.5 106.25 L 187.5 -0 z "
   id="path765"
   sodipodi:nodetypes="ccccccccc" /><path
   style="font-size:12;fill-opacity:0.75;fill-rule:evenodd;stroke-width:1;fill:#000033;"
   d="M 0 -0 L 187.5 -0 L 187.5 106.25 L 156.25 137.5 L 0 137.5 L 0 -0 z "
   id="path771"
   sodipodi:nodetypes="cccccc"
   transform="matrix(-1,0,0,1,1000,0)" /><path
   style="font-size:12;fill:#0000ff;fill-opacity:0.75;fill-rule:evenodd;stroke-width:1;"
   d="M 187.5 -0 L 200 -0 L 200 112.5 L 162.5 150 L 0 150 L 0 137.5 L 156.25 137.5 L 187.5 106.25 L 187.5 -0 z "
   id="path772"
   sodipodi:nodetypes="ccccccccc"
   transform="matrix(-1,0,0,1,1000,0)" /><path
   style="font-size:12;fill-opacity:0.75;fill-rule:evenodd;stroke-width:1;fill:#000033;"
   d="M 256.25 -0 L 743.75 -0 L 693.75 50 L 306.25 50 L 256.25 -0 z "
   id="path774"
   sodipodi:nodetypes="ccccc" /><path
   style="font-size:12;fill:#0000ff;fill-opacity:0.75;fill-rule:evenodd;stroke-width:1;"
   d="M 237.5 -0 L 256.25 -0 L 306.25 50 L 693.75 50 L 743.75 -0 L 762.5 -0 L 700 62.5 L 300 62.5 L 237.5 -0 z "
   id="path773"
   sodipodi:nodetypes="ccccccccc" /><path
   style="font-size:12;fill-opacity:0.75;fill-rule:evenodd;fill:#000033;"
   d="M 256.25 -0 L 562.5 0 L 512.5 50 L 306.25 50 L 256.25 -0 z "
   id="path782"
   sodipodi:nodetypes="ccccc"
   transform="matrix(1,0,0,-1,-237.5,750)" /><path
   style="font-size:12;fill:#0000ff;fill-opacity:0.75;fill-rule:evenodd;"
   d="M 237.5 -0 L 256.25 -0 L 306.25 50 L 512.5 50 L 562.5 0 L 581.25 0 L 518.75 62.5 L 300 62.5 L 237.5 -0 z "
   id="path783"
   sodipodi:nodetypes="ccccccccc"
   transform="matrix(1,0,0,-1,-237.5,750)" /><path
   style="font-size:12;fill-opacity:0.75;fill-rule:evenodd;fill:#000033;"
   d="M 256.25 -0 L 562.5 0 L 512.5 50 L 306.25 50 L 256.25 -0 z "
   id="path794"
   sodipodi:nodetypes="ccccc"
   transform="matrix(1,0,0,-1,418.75,750)" /><path
   style="font-size:12;fill:#0000ff;fill-opacity:0.75;fill-rule:evenodd;"
   d="M 237.5 -0 L 256.25 -0 L 306.25 50 L 512.5 50 L 562.5 0 L 581.25 0 L 518.75 62.5 L 300 62.5 L 237.5 -0 z "
   id="path795"
   sodipodi:nodetypes="ccccccccc"
   transform="matrix(1,0,0,-1,418.75,750)" /><path
   style="font-size:12;fill-opacity:0.75;fill-rule:evenodd;fill:#000033;"
   d="M 0 700 L 0 206.25 L 18.75 225 L 18.75 681.25 L 0 700 z "
   id="path779"
   sodipodi:nodetypes="ccccc" /><path
   style="font-size:12;fill:#0000ff;fill-opacity:0.75;fill-rule:evenodd;"
   d="M 231.25 0 L 250 -0 L 268.75 18.75 L 725 18.75 L 743.75 -0 L 762.5 -0 L 731.25 31.25 L 262.5 31.25 L 231.25 0 z "
   id="path780"
   sodipodi:nodetypes="ccccccccc"
   transform="matrix(6.123032e-17,-1,1,6.123032e-17,-1.45422e-14,950)" /><path
   style="font-size:12;fill-opacity:0.75;fill-rule:evenodd;fill:#000033;"
   d="M 0 700 L 0 206.25 L 18.75 225 L 18.75 681.25 L 0 700 z "
   id="path800"
   sodipodi:nodetypes="ccccc"
   transform="matrix(-1,0,0,1,1000,0)" /><path
   style="font-size:12;fill:#0000ff;fill-opacity:0.75;fill-rule:evenodd;"
   d="M 231.25 0 L 250 0 L 268.75 18.75 L 725 18.75 L 743.75 0 L 762.5 0 L 731.25 31.25 L 262.5 31.25 L 231.25 0 z "
   id="path801"
   sodipodi:nodetypes="ccccccccc"
   transform="matrix(-6.123032e-17,-1,-1,6.123032e-17,1000,950)" /><path
   style="fill:#0000ff;fill-rule:evenodd;stroke:none;stroke-opacity:1;stroke-width:1pt;stroke-linejoin:miter;stroke-linecap:butt;fill-opacity:0.75;"
   d="M 300 706.25 L 700 706.25 L 687.5 718.75 L 312.5 718.75 L 300 706.25 z "
   id="path802"
   sodipodi:nodetypes="ccccc" /><path
   style="fill:#000033;fill-rule:evenodd;stroke:none;stroke-opacity:1;stroke-width:1pt;stroke-linejoin:miter;stroke-linecap:butt;fill-opacity:0.749;"
   d="M 312.5 718.75 L 687.5 718.75 L 656.25 750 L 343.75 750 L 312.5 718.75 z "
   id="path803"
   sodipodi:nodetypes="ccccc" /><g
   id="g807"><path
   style="fill:#0000ff;fill-rule:evenodd;stroke:none;stroke-opacity:1;stroke-width:1pt;stroke-linejoin:miter;stroke-linecap:butt;fill-opacity:0.75;"
   d="M 125 687.5 L 134.375 678.125 L 209.375 678.125 L 218.75 687.5 L 215.625 687.5 L 209.375 681.25 L 175 681.25 L 181.25 687.5 L 162.5 687.5 L 168.75 681.25 L 134.375 681.25 L 128.125 687.5 L 125 687.5 z "
   id="path804"
   sodipodi:nodetypes="ccccccccccccc" /><path
   style="fill:#000000;fill-rule:evenodd;stroke:none;stroke-opacity:1;stroke-width:1pt;stroke-linejoin:miter;stroke-linecap:butt;fill-opacity:0.749;"
   d="M 134.375 681.25 L 168.75 681.25 L 162.5 687.5 L 128.125 687.5 L 134.375 681.25 z "
   id="path805"
   sodipodi:nodetypes="ccccc" /><path
   style="fill:#000000;fill-rule:evenodd;stroke:none;stroke-opacity:1;stroke-width:1pt;stroke-linejoin:miter;stroke-linecap:butt;fill-opacity:0.749;"
   d="M 209.375 681.25 L 175 681.25 L 181.25 687.5 L 215.625 687.5 L 209.375 681.25 z "
   id="path806"
   sodipodi:nodetypes="ccccc" /></g><g
   id="g811"
   transform="translate(656.25,0)"><path
   style="fill:#0000ff;fill-rule:evenodd;stroke:none;stroke-opacity:1;stroke-width:1pt;stroke-linejoin:miter;stroke-linecap:butt;fill-opacity:0.75;"
   d="M 125 687.5 L 134.375 678.125 L 209.375 678.125 L 218.75 687.5 L 215.625 687.5 L 209.375 681.25 L 175 681.25 L 181.25 687.5 L 162.5 687.5 L 168.75 681.25 L 134.375 681.25 L 128.125 687.5 L 125 687.5 z "
   id="path812"
   sodipodi:nodetypes="ccccccccccccc" /><path
   style="fill:#000000;fill-rule:evenodd;stroke:none;stroke-opacity:1;stroke-width:1pt;stroke-linejoin:miter;stroke-linecap:butt;fill-opacity:0.749;"
   d="M 134.375 681.25 L 168.75 681.25 L 162.5 687.5 L 128.125 687.5 L 134.375 681.25 z "
   id="path813"
   sodipodi:nodetypes="ccccc" /><path
   style="fill:#000000;fill-rule:evenodd;stroke:none;stroke-opacity:1;stroke-width:1pt;stroke-linejoin:miter;stroke-linecap:butt;fill-opacity:0.749;"
   d="M 209.375 681.25 L 175 681.25 L 181.25 687.5 L 215.625 687.5 L 209.375 681.25 z "
   id="path814"
   sodipodi:nodetypes="ccccc" /></g><g
   id="g815"
   transform="matrix(1,0,0,-1,328.125,750)"><path
   style="fill:#0000ff;fill-rule:evenodd;stroke:none;stroke-opacity:1;stroke-width:1pt;stroke-linejoin:miter;stroke-linecap:butt;fill-opacity:0.75;"
   d="M 125 687.5 L 134.375 678.125 L 209.375 678.125 L 218.75 687.5 L 215.625 687.5 L 209.375 681.25 L 175 681.25 L 181.25 687.5 L 162.5 687.5 L 168.75 681.25 L 134.375 681.25 L 128.125 687.5 L 125 687.5 z "
   id="path816"
   sodipodi:nodetypes="ccccccccccccc" /><path
   style="fill:#000000;fill-rule:evenodd;stroke:none;stroke-opacity:1;stroke-width:1pt;stroke-linejoin:miter;stroke-linecap:butt;fill-opacity:0.749;"
   d="M 134.375 681.25 L 168.75 681.25 L 162.5 687.5 L 128.125 687.5 L 134.375 681.25 z "
   id="path817"
   sodipodi:nodetypes="ccccc" /><path
   style="fill:#000000;fill-rule:evenodd;stroke:none;stroke-opacity:1;stroke-width:1pt;stroke-linejoin:miter;stroke-linecap:butt;fill-opacity:0.749;"
   d="M 209.375 681.25 L 175 681.25 L 181.25 687.5 L 215.625 687.5 L 209.375 681.25 z "
   id="path818"
   sodipodi:nodetypes="ccccc" /></g><g
   id="g819"
   transform="matrix(6.123032e-17,-1,-1,-6.123032e-17,718.75,625)"><path
   style="fill:#0000ff;fill-rule:evenodd;stroke:none;stroke-opacity:1;stroke-width:1pt;stroke-linejoin:miter;stroke-linecap:butt;fill-opacity:0.75;"
   d="M 125 687.5 L 134.375 678.125 L 209.375 678.125 L 218.75 687.5 L 215.625 687.5 L 209.375 681.25 L 175 681.25 L 181.25 687.5 L 162.5 687.5 L 168.75 681.25 L 134.375 681.25 L 128.125 687.5 L 125 687.5 z "
   id="path820"
   sodipodi:nodetypes="ccccccccccccc" /><path
   style="fill:#000000;fill-rule:evenodd;stroke:none;stroke-opacity:1;stroke-width:1pt;stroke-linejoin:miter;stroke-linecap:butt;fill-opacity:0.749;"
   d="M 134.375 681.25 L 168.75 681.25 L 162.5 687.5 L 128.125 687.5 L 134.375 681.25 z "
   id="path821"
   sodipodi:nodetypes="ccccc" /><path
   style="fill:#000000;fill-rule:evenodd;stroke:none;stroke-opacity:1;stroke-width:1pt;stroke-linejoin:miter;stroke-linecap:butt;fill-opacity:0.749;"
   d="M 209.375 681.25 L 175 681.25 L 181.25 687.5 L 215.625 687.5 L 209.375 681.25 z "
   id="path822"
   sodipodi:nodetypes="ccccc" /></g><g
   id="g827"
   transform="matrix(-6.123032e-17,-1,1,-6.123032e-17,281.25,625)"><path
   style="fill:#0000ff;fill-rule:evenodd;stroke:none;stroke-opacity:1;stroke-width:1pt;stroke-linejoin:miter;stroke-linecap:butt;fill-opacity:0.75;"
   d="M 125 687.5 L 134.375 678.125 L 209.375 678.125 L 218.75 687.5 L 215.625 687.5 L 209.375 681.25 L 175 681.25 L 181.25 687.5 L 162.5 687.5 L 168.75 681.25 L 134.375 681.25 L 128.125 687.5 L 125 687.5 z "
   id="path828"
   sodipodi:nodetypes="ccccccccccccc" /><path
   style="fill:#000000;fill-rule:evenodd;stroke:none;stroke-opacity:1;stroke-width:1pt;stroke-linejoin:miter;stroke-linecap:butt;fill-opacity:0.749;"
   d="M 134.375 681.25 L 168.75 681.25 L 162.5 687.5 L 128.125 687.5 L 134.375 681.25 z "
   id="path829"
   sodipodi:nodetypes="ccccc" /><path
   style="fill:#000000;fill-rule:evenodd;stroke:none;stroke-opacity:1;stroke-width:1pt;stroke-linejoin:miter;stroke-linecap:butt;fill-opacity:0.749;"
   d="M 209.375 681.25 L 175 681.25 L 181.25 687.5 L 215.625 687.5 L 209.375 681.25 z "
   id="path830"
   sodipodi:nodetypes="ccccc" /></g></svg>
