<?xml version="1.0" encoding="UTF-8" standalone="no"?>
<!-- Created with Sodipodi ("http://www.sodipodi.com/") -->

<svg
   xmlns:dc="http://purl.org/dc/elements/1.1/"
   xmlns:cc="http://creativecommons.org/ns#"
   xmlns:rdf="http://www.w3.org/1999/02/22-rdf-syntax-ns#"
   xmlns:svg="http://www.w3.org/2000/svg"
   xmlns="http://www.w3.org/2000/svg"
   xmlns:xlink="http://www.w3.org/1999/xlink"
   xmlns:sodipodi="http://sodipodi.sourceforge.net/DTD/sodipodi-0.dtd"
   xmlns:inkscape="http://www.inkscape.org/namespaces/inkscape"
   id="svg602"
   sodipodi:version="0.34"
   width="800pt"
   height="600pt"
   xml:space="preserve"
   sodipodi:docname="splash1.svg"
   version="1.1"
   inkscape:version="0.91 r13725"
   inkscape:export-filename="/Users/ccase/Downloads/Graphics/graphics/splash_redo.png"
   inkscape:export-xdpi="300"
   inkscape:export-ydpi="300"><metadata
     id="metadata3532"><rdf:RDF><cc:Work
         rdf:about=""><dc:format>image/svg+xml</dc:format><dc:type
           rdf:resource="http://purl.org/dc/dcmitype/StillImage" /></cc:Work></rdf:RDF></metadata><defs
     id="defs604"><linearGradient
       id="linearGradient887"><stop
         style="stop-color:#7f7f7f;stop-opacity:1;"
         offset="0"
         id="stop888" /><stop
         style="stop-color:#cccccc;stop-opacity:1;"
         offset="1"
         id="stop889" /></linearGradient><linearGradient
       id="linearGradient640"><stop
         style="stop-color:#00334c;stop-opacity:0.298;"
         offset="0"
         id="stop641" /><stop
         style="stop-color:#007fcc;stop-opacity:0.4;"
         offset="1"
         id="stop642" /></linearGradient><linearGradient
       id="linearGradient631"><stop
         style="stop-color:#4c4c4c;stop-opacity:1;"
         offset="0"
         id="stop632" /><stop
         style="stop-color:#999999;stop-opacity:1;"
         offset="1"
         id="stop633" /></linearGradient><linearGradient
       xlink:href="#linearGradient631"
       id="linearGradient634"
       x1="0.97625953"
       y1="1.3558344e-2"
       x2="-3.95285711e-3"
       y2="0.95945972" /><linearGradient
       xlink:href="#linearGradient631"
       id="linearGradient635"
       x1="0.88889211"
       y1="0.4296875"
       x2="-0.11111119"
       y2="0.3984375" /><linearGradient
       xlink:href="#linearGradient640"
       id="linearGradient643"
       x1="0.98418158"
       y1="0.95555556"
       x2="7.90503714e-3"
       y2="3.3333391e-2" /><linearGradient
       xlink:href="#linearGradient631"
       id="linearGradient644"
       x1="1.97408684e-2"
       y1="0.95945907"
       x2="0.98418951"
       y2="-1.35138687e-2" /><linearGradient
       xlink:href="#linearGradient887"
       id="linearGradient872"
       x1="0.94071162"
       y1="-1.31579284e-2"
       x2="1.18577499e-2"
       y2="0.93421054" /><linearGradient
       xlink:href="#linearGradient887"
       id="linearGradient873"
       x1="3.95306246e-3"
       y1="0.94736725"
       x2="0.98023683"
       y2="3.94733027e-2" /></defs><sodipodi:namedview
     id="base"
     showgrid="true"
     snaptogrid="true"
     pagecolor="#000000"
     bordercolor="#000000"
     borderopacity="0"
     inkscape:zoom="1.0706667"
     inkscape:cx="349.1594"
     inkscape:cy="375"
     inkscape:window-width="1680"
     inkscape:window-height="1005"
     inkscape:window-x="0"
     inkscape:window-y="1"
     inkscape:window-maximized="1"
     inkscape:current-layer="svg602"><inkscape:grid
       id="GridFromPre046Settings"
       type="xygrid"
       originx="0px"
       originy="0px"
       spacingx="5mm"
       spacingy="5mm"
       color="#3f3fff"
       empcolor="#3f3fff"
       opacity="0.15"
       empopacity="0.38"
       empspacing="5" /></sodipodi:namedview><g
     id="g799"
     transform="matrix(0.75,0,0,0.75,212.5,159.6473)"><path
       style="fill:#ff0000;fill-rule:evenodd;stroke:none;stroke-opacity:1;stroke-width:1pt;stroke-linejoin:miter;stroke-linecap:butt;fill-opacity:1;"
       d="M 50 0 C 37.5 0 -25 -93.75 -43.75 -112.5 C 6.25 -50 50 68.75 50 131.25 C 50 68.75 93.75 -50 143.75 -112.5 C 125 -93.75 62.5 0 50 0 z "
       id="path606"
       sodipodi:nodetypes="ccccc" /><path
       style="fill:#ffffff;fill-rule:evenodd;stroke:none;stroke-opacity:1;stroke-width:1pt;stroke-linejoin:miter;stroke-linecap:butt;fill-opacity:1;"
       d="M 43.75 225 C 43.75 -6.25 -81.25 -131.25 -100 -150 C -124.8775 -150.6127 -175 -150 -200 -150 C -193.75 -143.75 -143.75 -150 -112.5 -131.25 C -85.70335 -115.172 0 0 -25 18.75 C 6.25 6.25 31.25 156.25 43.75 225 z "
       id="path607"
       sodipodi:nodetypes="cccscc" /><path
       style="fill:#ffffff;fill-rule:evenodd;stroke:none;stroke-opacity:1;stroke-width:1pt;stroke-linejoin:miter;stroke-linecap:butt;fill-opacity:1;"
       d="M 56.25 225.2723 C 56.25 -5.9777 181.25 -130.9777 200 -149.7277 C 224.8774 -150.3404 275 -149.7277 300 -149.7277 C 293.75 -143.4777 243.75 -149.7277 212.5 -130.9777 C 185.7034 -114.8997 100 0.2723 125 19.0223 C 93.75 6.5223 68.75 156.5223 56.25 225.2723 z "
       id="path608"
       sodipodi:nodetypes="cccscc" /><path
       style="fill:#ff0000;fill-rule:evenodd;stroke:none;stroke-opacity:1;stroke-width:1pt;stroke-linejoin:miter;stroke-linecap:butt;fill-opacity:1;"
       d="M -5.7598 57.10785 C -6.25 50 -12.5 31.25 -18.75 31.25 C -31.25 31.25 -12.5 43.75 -5.7598 57.10785 z "
       id="path610"
       sodipodi:nodetypes="ccc" /><path
       style="fill:#ff0000;fill-rule:evenodd;stroke:none;stroke-opacity:1;stroke-width:1pt;stroke-linejoin:miter;stroke-linecap:butt;fill-opacity:1;"
       d="M 106.25 57.10785 C 106.7402 50 112.9902 31.25 119.2402 31.25 C 131.7402 31.25 112.9902 43.75 106.25 57.10785 z "
       id="path611"
       sodipodi:nodetypes="ccc" /><path
       style="fill:#ff0000;fill-rule:evenodd;stroke:none;stroke-opacity:1;stroke-width:1pt;stroke-linejoin:miter;stroke-linecap:butt;fill-opacity:1;"
       d="M 100 81.25 C 100 118.75 131.25 175 150 200 C 112.5 156.25 93.75 131.25 87.5 118.75 C 87.5 112.5 93.75 93.75 100 81.25 z "
       id="path612"
       sodipodi:nodetypes="cccc" /><path
       style="fill:#ff0000;fill-rule:evenodd;stroke:none;stroke-opacity:1;stroke-width:1pt;stroke-linejoin:miter;stroke-linecap:butt;fill-opacity:1;"
       d="M 0 81.25 C 0 118.75 -31.25 175 -50 200 C -12.5 156.25 6.25 131.25 12.5 118.75 C 12.5 112.5 6.25 93.75 0 81.25 z "
       id="path613"
       sodipodi:nodetypes="cccc" /><g
       id="g622"
       transform="matrix(1.75,0,0,1.75,-207.8125,-176.5625)"
       style="fill:#ffffff;fill-opacity:1;"><path
         style="fill:#ffffff;fill-rule:evenodd;stroke:none;stroke-opacity:1;stroke-width:1pt;stroke-linejoin:miter;stroke-linecap:butt;fill-opacity:1;"
         d="M 118.75 58.75 C 120 57.5 122.5 55 123.75 53.75 C 125 52.5 142.647 54.04412 143.75 53.75 C 143.6029 52.20588 147.5 25.53922 143.75 23.75 L 152.5 18.75 C 151.25 21.25 148.6519 49.06862 148.75 53.75 C 151.25 55 167.5 53.75 170 52.5 C 168.75 53.75 168.75 58.75 165 58.75 C 161.25 58.75 147.5 57.5 143.75 57.5 C 140 57.5 120 58.75 118.75 58.75 z "
         id="path618"
         sodipodi:nodetypes="cccccccccc" /><path
         style="fill:#ffffff;fill-rule:evenodd;stroke:none;stroke-opacity:1;stroke-width:1pt;stroke-linejoin:miter;stroke-linecap:butt;fill-opacity:1;"
         d="M 135 27.47417 C 133.75 28.72417 128.75 36.25 127.5 37.5 C 131.25 35 162.5 36.25 165 35 C 167.5 33.75 168.75 32.5 170 31.25 C 166.25 32.5 138.9706 33.52809 135 33.72417 C 131.0294 33.92025 133.75 29.97417 135 27.47417 z "
         id="path619"
         sodipodi:nodetypes="cccccc" /><path
         style="fill:#ffffff;fill-rule:evenodd;stroke:none;stroke-opacity:1;stroke-width:1pt;stroke-linejoin:miter;stroke-linecap:butt;fill-opacity:1;"
         d="M 143.75 42.5 C 141.25 43.75 136.25 43.75 131.25 43.75 C 131.25 42.5 132.5 41.25 132.5 40 C 131.25 41.25 126.8873 45.14706 127.8186 46.32353 C 128.75 45 136.25 45 142.5 46.25 C 143.75 45 143.75 43.75 143.75 42.5 z "
         id="path620"
         sodipodi:nodetypes="cccccc" /><path
         style="fill:#ffffff;fill-rule:evenodd;stroke:none;stroke-opacity:1;stroke-width:1pt;stroke-linejoin:miter;stroke-linecap:butt;fill-opacity:1;"
         d="M 150 46.25 C 153.75 44.9264 157.5 44.8528 162.5 43.6764 C 162.5 45 161.25 47.5 161.25 48.75 C 162.5 46.1764 163.75 43.6764 166.25 41.1764 C 160 43.6764 152.5 43.6764 151.25 42.4264 C 151.25 43.6764 151.25 44.9264 150 46.25 z "
         id="path621"
         sodipodi:nodetypes="cccccc" /></g><path
       style="fill:#ff0000;fill-rule:evenodd;stroke:none;stroke-opacity:1;stroke-width:1pt;stroke-linejoin:miter;stroke-linecap:butt;fill-opacity:1;"
       d="M 50 0 C 37.5 0 -25 -93.75 -43.75 -112.5 C 6.25 -50 50 68.75 50 131.25 C 50 68.75 93.75 -50 143.75 -112.5 C 125 -93.75 62.5 0 50 0 z "
       id="path691"
       sodipodi:nodetypes="ccccc" /><path
       style="fill:#ffffff;fill-rule:evenodd;stroke:none;stroke-opacity:1;stroke-width:1pt;stroke-linejoin:miter;stroke-linecap:butt;fill-opacity:1;"
       d="M 43.75 225 C 43.75 -6.25 -81.25 -131.25 -100 -150 C -124.8775 -150.6127 -175 -150 -200 -150 C -193.75 -143.75 -143.75 -150 -112.5 -131.25 C -85.70335 -115.172 0 0 -25 18.75 C 6.25 6.25 31.25 156.25 43.75 225 z "
       id="path692"
       sodipodi:nodetypes="cccscc" /><path
       style="fill:#ffffff;fill-rule:evenodd;stroke:none;stroke-opacity:1;stroke-width:1pt;stroke-linejoin:miter;stroke-linecap:butt;fill-opacity:1;"
       d="M 56.25 225.2723 C 56.25 -5.9777 181.25 -130.9777 200 -149.7277 C 224.8774 -150.3404 275 -149.7277 300 -149.7277 C 293.75 -143.4777 243.75 -149.7277 212.5 -130.9777 C 185.7034 -114.8997 100 0.2723 125 19.0223 C 93.75 6.5223 68.75 156.5223 56.25 225.2723 z "
       id="path693"
       sodipodi:nodetypes="cccscc" /><path
       style="fill:#ff0000;fill-rule:evenodd;stroke:none;stroke-opacity:1;stroke-width:1pt;stroke-linejoin:miter;stroke-linecap:butt;fill-opacity:1;"
       d="M -5.7598 57.10785 C -6.25 50 -12.5 31.25 -18.75 31.25 C -31.25 31.25 -12.5 43.75 -5.7598 57.10785 z "
       id="path694"
       sodipodi:nodetypes="ccc" /><path
       style="fill:#ff0000;fill-rule:evenodd;stroke:none;stroke-opacity:1;stroke-width:1pt;stroke-linejoin:miter;stroke-linecap:butt;fill-opacity:1;"
       d="M 106.25 57.10785 C 106.7402 50 112.9902 31.25 119.2402 31.25 C 131.7402 31.25 112.9902 43.75 106.25 57.10785 z "
       id="path695"
       sodipodi:nodetypes="ccc" /><path
       style="fill:#ff0000;fill-rule:evenodd;stroke:none;stroke-opacity:1;stroke-width:1pt;stroke-linejoin:miter;stroke-linecap:butt;fill-opacity:1;"
       d="M 100 81.25 C 100 118.75 131.25 175 150 200 C 112.5 156.25 93.75 131.25 87.5 118.75 C 87.5 112.5 93.75 93.75 100 81.25 z "
       id="path696"
       sodipodi:nodetypes="cccc" /><path
       style="fill:#ff0000;fill-rule:evenodd;stroke:none;stroke-opacity:1;stroke-width:1pt;stroke-linejoin:miter;stroke-linecap:butt;fill-opacity:1;"
       d="M 0 81.25 C 0 118.75 -31.25 175 -50 200 C -12.5 156.25 6.25 131.25 12.5 118.75 C 12.5 112.5 6.25 93.75 0 81.25 z "
       id="path697"
       sodipodi:nodetypes="cccc" /><g
       id="g698"
       transform="matrix(1.75,0,0,1.75,-207.8125,-176.5625)"
       style="fill:#ffffff;fill-opacity:1;"><path
         style="fill:#ffffff;fill-rule:evenodd;stroke:none;stroke-opacity:1;stroke-width:1pt;stroke-linejoin:miter;stroke-linecap:butt;fill-opacity:1;"
         d="M 118.75 58.75 C 120 57.5 122.5 55 123.75 53.75 C 125 52.5 142.647 54.04412 143.75 53.75 C 143.6029 52.20588 147.5 25.53922 143.75 23.75 L 152.5 18.75 C 151.25 21.25 148.6519 49.06862 148.75 53.75 C 151.25 55 167.5 53.75 170 52.5 C 168.75 53.75 168.75 58.75 165 58.75 C 161.25 58.75 147.5 57.5 143.75 57.5 C 140 57.5 120 58.75 118.75 58.75 z "
         id="path699"
         sodipodi:nodetypes="cccccccccc" /><path
         style="fill:#ffffff;fill-rule:evenodd;stroke:none;stroke-opacity:1;stroke-width:1pt;stroke-linejoin:miter;stroke-linecap:butt;fill-opacity:1;"
         d="M 135 27.47417 C 133.75 28.72417 128.75 36.25 127.5 37.5 C 131.25 35 162.5 36.25 165 35 C 167.5 33.75 168.75 32.5 170 31.25 C 166.25 32.5 138.9706 33.52809 135 33.72417 C 131.0294 33.92025 133.75 29.97417 135 27.47417 z "
         id="path700"
         sodipodi:nodetypes="cccccc" /><path
         style="fill:#ffffff;fill-rule:evenodd;stroke:none;stroke-opacity:1;stroke-width:1pt;stroke-linejoin:miter;stroke-linecap:butt;fill-opacity:1;"
         d="M 143.75 42.5 C 141.25 43.75 136.25 43.75 131.25 43.75 C 131.25 42.5 132.5 41.25 132.5 40 C 131.25 41.25 126.8873 45.14706 127.8186 46.32353 C 128.75 45 136.25 45 142.5 46.25 C 143.75 45 143.75 43.75 143.75 42.5 z "
         id="path701"
         sodipodi:nodetypes="cccccc" /><path
         style="fill:#ffffff;fill-rule:evenodd;stroke:none;stroke-opacity:1;stroke-width:1pt;stroke-linejoin:miter;stroke-linecap:butt;fill-opacity:1;"
         d="M 150 46.25 C 153.75 44.9264 157.5 44.8528 162.5 43.6764 C 162.5 45 161.25 47.5 161.25 48.75 C 162.5 46.1764 163.75 43.6764 166.25 41.1764 C 160 43.6764 152.5 43.6764 151.25 42.4264 C 151.25 43.6764 151.25 44.9264 150 46.25 z "
         id="path702"
         sodipodi:nodetypes="cccccc" /></g></g><g
     id="g679"
     transform="matrix(0.75,0,0,0.75,189.8437,315.625)"><path
       id="path853"
       fill="none"
       stroke="black"
       stroke-width="1"
       d="M 1823 41.33861 C 1360.53 49.03936 1122 158.2643 1021.752 248.4828 C 1059.372 246.7431 1079.053 252.1701 1122.487 279.6916 C 1179.032 199.9863 1404.95 97.68166 1823 41.33861 z "
       style="font-size:12;fill:url(#linearGradient872);"
       transform="matrix(0.5,0,0,0.5,7.87399,201.2057)" /><path
       style="font-size:12;fill:#4cb3ff;fill-rule:evenodd;fill-opacity:1;"
       d="M 1666.628 177.9732 C 1666.628 225.0889 1666.628 225.0889 1695.503 225.0889 C 1666.628 225.0889 1666.628 225.0889 1666.628 272.2037 C 1666.628 225.0889 1666.628 225.0889 1637.753 225.0889 C 1666.628 225.0889 1666.628 225.0889 1666.628 177.9732 z "
       id="path854"
       sodipodi:nodetypes="ccccc"
       transform="matrix(0.5,0,0,0.5,7.87399,201.2057)" /><path
       style="font-size:12;fill:#4cb3ff;fill-rule:evenodd;fill-opacity:1;"
       d="M 1599.254 232.1561 C 1599.254 291.0499 1599.254 291.0499 1635.346 291.0499 C 1599.254 291.0499 1599.254 291.0499 1599.254 349.9444 C 1599.254 291.0499 1599.254 291.0499 1563.159 291.0499 C 1599.254 291.0499 1599.254 291.0499 1599.254 232.1561 z "
       id="path703"
       sodipodi:nodetypes="ccccc"
       transform="matrix(0.5,0,0,0.5,7.87399,201.2057)" /><path
       style="font-size:12;fill:#4cb3ff;fill-rule:evenodd;fill-opacity:1;"
       d="M 1657.003 293.4061 C 1657.003 328.7424 1657.003 328.7424 1678.66 328.7424 C 1657.003 328.7424 1657.003 328.7424 1657.003 364.079 C 1657.003 328.7424 1657.003 328.7424 1635.346 328.7424 C 1657.003 328.7424 1657.003 328.7424 1657.003 293.4061 z "
       id="path704"
       sodipodi:nodetypes="ccccc"
       transform="matrix(0.5,0,0,0.5,7.87399,201.2057)" /><path
       id="path705"
       fill="none"
       stroke="black"
       stroke-width="1"
       d="M 1183.004 653.8386 C 1645.475 646.1379 1884.005 536.9131 1984.252 446.6944 C 1946.631 448.4336 1926.951 443.007 1883.518 415.4856 C 1826.971 495.1912 1601.054 597.4954 1183.004 653.8386 z "
       style="font-size:12;fill:url(#linearGradient873);"
       transform="matrix(0.5,0,0,0.5,7.87399,201.2057)" /><path
       style="font-size:12;fill:#ffffff;"
       d="M 1647.315 201.4011 C 1551.44 193.3386 1473.315 257.7761 1467.19 328.2136 C 1461.065 398.5886 1526.815 475.0261 1622.752 483.0261 C 1488.815 495.5261 1412.065 406.3386 1419.252 324.1511 C 1420.19 313.7136 1422.44 303.4011 1426.002 293.4636 C 1272.752 293.9011 1291.565 338.1511 1403.002 366.3386 C 1280.502 356.4636 1167.002 254.2136 1454.065 247.0261 C 1492.815 203.6511 1561.627 178.6511 1647.315 201.4011 z "
       id="path717"
       transform="matrix(0.5,0,0,0.5,7.87399,201.2057)" /></g><rect
     style="font-size:12;fill:#000000;fill-rule:evenodd;stroke-width:1;fill-opacity:0.65;"
     id="rect824"
     width="999.668457"
     height="752.052124"
     x="3.05175781e-5"
     y="-2.05213928" /><g
     id="g670"
     style="fill:url(#linearGradient635);"
     transform="matrix(2,0,0,2,148.2745,34.84283)"><path
       id="Unnamed#1"
       fill="none"
       stroke="black"
       stroke-width="1"
       d="M 129.33 181 C 128 158.33 148.5791 146.318 150.33 133 C 151.9091 120.988 139.3844 111.2651 127.67 112.33 C 111.9616 113.7581 106.6699 127.9756 107 137.33 C 108.3399 175.3056 127 219 152 243.67 C 131 211 114.9675 159.2244 117.67 139.67 C 119.2975 127.8944 122.8363 122.7044 132.67 125.33 C 142.8363 128.0444 142.67 140 123.33 152.67 C 123.67 158 127.67 175 129.33 181 z "
       transform="matrix(1.330592,0,0,1.330592,2.921377,1.7587)"
       style="font-size:12;fill:url(#linearGradient635);stroke:none;"
       sodipodi:nodetypes="cssscsscc" /><path
       id="Unnamed"
       fill="none"
       stroke="black"
       stroke-width="1"
       d="M 122.67,9.33            C 153.00,65.67 155.67,102.00 151.33,120.33              149.00,115.67 147.00,113.67 140.67,110.33              146.67,98.00 144.00,63.67 122.67,9.33 Z"
       transform="matrix(1.330592,0,0,1.330592,2.921377,1.7587)"
       style="font-size:12;fill:url(#linearGradient635);stroke:none;" /></g><text
     style="font-style:normal;font-weight:normal;font-size:100px;line-height:100%;font-family:Precursors;writing-mode:lr-tb;text-anchor:middle;fill:#0099ff;fill-opacity:0.75;stroke:none;stroke-width:1pt;stroke-linecap:butt;stroke-linejoin:miter;stroke-opacity:1"
     x="500.0018"
     y="409.79999"
     id="text903"
     sodipodi:linespacing="100%"
     xml:space="preserve"><tspan
       x="500.0018"
       y="409.79999"
       sodipodi:role="line"
       id="tspan918"
       style="font-style:normal;font-variant:normal;font-weight:normal;font-stretch:normal;font-family:'Trajan Pro';-inkscape-font-specification:'Trajan Pro'">Precursors</tspan></text>
<text
     style="font-style:normal;font-variant:normal;font-weight:normal;font-stretch:normal;font-size:32px;line-height:100%;font-family:'Trajan Pro';-inkscape-font-specification:'Trajan Pro';writing-mode:lr-tb;text-anchor:middle;fill:#0099ff;fill-opacity:0.75;stroke:none;stroke-width:1pt;stroke-linecap:butt;stroke-linejoin:miter;stroke-opacity:1"
     x="777.88855"
     y="334.86719"
     id="text920"
     sodipodi:linespacing="100%"
     xml:space="preserve"><tspan
       x="777.88855"
       y="334.86719"
       sodipodi:role="line"
       id="tspan925">Requiem For Innocence</tspan></text>
</svg>